<svg width="36" height="36" viewBox="0 0 36 36" fill="none" xmlns="http://www.w3.org/2000/svg">
<path d="M11.5782 10.1855H16.156V7.68823H11.5782C10.3638 7.68823 9.19944 8.17072 8.34099 9.02915C7.48225 9.88789 7.00008 11.0523 7.00008 12.2664V29.4003C6.99485 30.0494 7.25003 30.6733 7.70842 31.1328C8.16652 31.5924 8.78981 31.849 9.4389 31.8458C10.0877 31.8423 10.7084 31.5793 11.1619 31.1151L16.5723 25.7047L21.9827 31.1151C22.4362 31.5793 23.0568 31.8423 23.7057 31.8458C24.3545 31.849 24.9778 31.5924 25.4362 31.1328C25.8946 30.6733 26.1495 30.0494 26.1445 29.4003V20.1738H23.6473V29.2301L16.5723 22.1552L9.49733 29.2301V12.2664C9.49733 11.7145 9.71651 11.1853 10.1067 10.7948C10.4968 10.4046 11.0264 10.1854 11.5782 10.1854L11.5782 10.1855Z" fill="black"/>
<path d="M32.0005 9.38221C32.0008 8.34585 31.6167 7.34627 30.9232 6.57642C30.2293 5.80656 29.2748 5.32082 28.2442 5.21343C27.2134 5.10602 26.1793 5.38413 25.3417 5.99466C24.195 5.14231 22.6933 4.93273 21.3573 5.43843C20.0213 5.94443 19.0349 7.09609 18.7405 8.49386C18.4459 9.89193 18.884 11.3435 19.9024 12.3453L25.3333 17.7557L30.7437 12.3453C31.5433 11.5662 31.9962 10.4987 32.0005 9.38218V9.38221ZM29.0083 10.6018L25.3417 14.2683L21.6752 10.6018C21.2432 10.175 21.0717 9.55032 21.2252 8.96269C21.3788 8.3754 21.8343 7.91443 22.4198 7.75354C23.0054 7.59299 23.6321 7.75673 24.0641 8.18348L25.3333 9.43209L26.5819 8.18348C27.0139 7.75006 27.6441 7.58023 28.2355 7.73757C28.8268 7.89492 29.2893 8.35563 29.4486 8.94642C29.608 9.53719 29.4402 10.1683 29.0082 10.6017L29.0083 10.6018Z" fill="black"/>
</svg>
