<svg width="20" height="20" viewBox="0 0 20 20" fill="none" xmlns="http://www.w3.org/2000/svg">
<path d="M15.0833 16.9375V15.3958C15.0833 14.5781 14.7585 13.7938 14.1802 13.2156C13.602 12.6374 12.8177 12.3125 12 12.3125H5.83333C5.01558 12.3125 4.23132 12.6374 3.65309 13.2156C3.07485 13.7938 2.75 14.5781 2.75 15.3958V16.9375" stroke="currentColor" stroke-opacity="0.6" stroke-width="1.25"/>
<path d="M8.91658 9.22917C10.6195 9.22917 11.9999 7.84871 11.9999 6.14583C11.9999 4.44296 10.6195 3.0625 8.91658 3.0625C7.21371 3.0625 5.83325 4.44296 5.83325 6.14583C5.83325 7.84871 7.21371 9.22917 8.91658 9.22917Z" stroke="currentColor" stroke-opacity="0.6" stroke-width="1.25"/>
<path fill-rule="evenodd" clip-rule="evenodd" d="M14.875 9.625V11.5H16.125V9.625H18V8.375L16.125 8.375V6.5H14.875V8.375L13 8.375V9.625H14.875Z" fill="currentColor" fill-opacity="0.6"/>
</svg>
