<svg width="20" height="20" viewBox="0 0 20 20" fill="none" xmlns="http://www.w3.org/2000/svg">
<path fill-rule="evenodd" clip-rule="evenodd" d="M5.83337 4.375H5.20837V5V9.375V10V10V10.625V15V15.625H5.83337H11.6026C12.4434 15.625 13.2528 15.2995 13.852 14.7153C14.4518 14.1305 14.7917 13.334 14.7917 12.5C14.7917 11.666 14.4518 10.8695 13.852 10.2847C13.6425 10.0804 13.4072 9.90775 13.1539 9.76958C13.1731 9.75174 13.1922 9.73363 13.211 9.71528C13.8108 9.13052 14.1507 8.33399 14.1507 7.50001C14.1507 6.66602 13.8108 5.8695 13.211 5.28473C12.6118 4.7005 11.8024 4.375 10.9616 4.375H5.83337ZM6.45837 10.625H10.9616C10.9646 10.625 10.9677 10.625 10.9708 10.625H11.6026C12.1219 10.625 12.6169 10.8263 12.9794 11.1797C13.3414 11.5327 13.5417 12.0079 13.5417 12.5C13.5417 12.9921 13.3414 13.4674 12.9794 13.8203C12.6169 14.1737 12.1219 14.375 11.6026 14.375H6.45837V10.625ZM10.9688 9.375C11.4855 9.37315 11.9775 9.17209 12.3384 8.82028C12.7003 8.46736 12.9007 7.99211 12.9007 7.50001C12.9007 7.0079 12.7003 6.53266 12.3384 6.17973C11.9759 5.82629 11.4809 5.625 10.9616 5.625H6.45837V9.375H10.9688Z" fill="currentColor" fill-opacity="0.6"/>
</svg>
