<svg width="20" height="20" viewBox="0 0 20 20" fill="none" xmlns="http://www.w3.org/2000/svg">
<path fill-rule="evenodd" clip-rule="evenodd" d="M4 7C4.55228 7 5 6.55228 5 6C5 5.44772 4.55228 5 4 5C3.44772 5 3 5.44772 3 6C3 6.55228 3.44772 7 4 7ZM17 6.625H7V5.375H17V6.625ZM7 10.625H17V9.375H7V10.625ZM7 14.625H17V13.375H7V14.625ZM5 10C5 10.5523 4.55228 11 4 11C3.44772 11 3 10.5523 3 10C3 9.44772 3.44772 9 4 9C4.55228 9 5 9.44772 5 10ZM4 15C4.55228 15 5 14.5523 5 14C5 13.4477 4.55228 13 4 13C3.44772 13 3 13.4477 3 14C3 14.5523 3.44772 15 4 15Z" fill="currentColor" fill-opacity="0.6"/>
</svg>
