<svg width="20" height="20" viewBox="0 0 20 20" fill="none" xmlns="http://www.w3.org/2000/svg">
<path fill-rule="evenodd" clip-rule="evenodd" d="M8.5 1.375C7.91389 1.375 7.36698 1.63428 6.97478 2.07005C6.58454 2.50365 6.375 3.07889 6.375 3.66667V5.375H3.6C2.38183 5.375 1.375 6.34781 1.375 7.57143V15.4286C1.375 16.6522 2.38183 17.625 3.6 17.625H7H13H16.4C17.6182 17.625 18.625 16.6522 18.625 15.4286V7.57143C18.625 6.34781 17.6182 5.375 16.4 5.375H13.625V3.66667C13.625 3.07889 13.4155 2.50365 13.0252 2.07005C12.633 1.63428 12.0861 1.375 11.5 1.375H8.5ZM12.375 5.375V3.66667C12.375 3.37039 12.2685 3.09778 12.0961 2.90626C11.9257 2.71691 11.7095 2.625 11.5 2.625H8.5C8.29046 2.625 8.07431 2.71691 7.9039 2.90626C7.73153 3.09778 7.625 3.37039 7.625 3.66667V5.375H12.375ZM7.625 6.625H12.375V16.375H7.625V6.625ZM6.375 6.625H3.6C3.05086 6.625 2.625 7.0593 2.625 7.57143V15.4286C2.625 15.9407 3.05086 16.375 3.6 16.375H6.375V6.625ZM13.625 16.375V6.625H16.4C16.9491 6.625 17.375 7.0593 17.375 7.57143V15.4286C17.375 15.9407 16.9491 16.375 16.4 16.375H13.625Z" fill="currentColor" fill-opacity="0.6"/>
</svg>
