<svg width="20" height="20" viewBox="0 0 20 20" fill="none" xmlns="http://www.w3.org/2000/svg">
<path fill-rule="evenodd" clip-rule="evenodd" d="M1.375 5C1.375 2.99797 2.99797 1.375 5 1.375H15C17.002 1.375 18.625 2.99797 18.625 5V15C18.625 17.002 17.002 18.625 15 18.625H5C2.99797 18.625 1.375 17.002 1.375 15V5ZM5 2.625C3.68832 2.625 2.625 3.68832 2.625 5V6.25H6.5V2.625H5ZM6.5 7.5H2.625V15C2.625 16.3117 3.68832 17.375 5 17.375H6.5L6.5 7.5ZM7.75 7.5H17.375V15C17.375 16.3117 16.3117 17.375 15 17.375H7.75L7.75 7.5ZM17.375 6.25H7.75V2.625H15C16.3117 2.625 17.375 3.68832 17.375 5V6.25Z" fill="currentColor" fill-opacity="0.6"/>
</svg>
