<svg width="20" height="20" viewBox="0 0 20 20" fill="none" xmlns="http://www.w3.org/2000/svg">
<path d="M16.4615 8H9.53846C8.68879 8 8 8.68879 8 9.53846V16.4615C8 17.3112 8.68879 18 9.53846 18H16.4615C17.3112 18 18 17.3112 18 16.4615V9.53846C18 8.68879 17.3112 8 16.4615 8Z" stroke="currentColor" stroke-opacity="0.6" stroke-width="1.25" stroke-linecap="round" stroke-linejoin="round"/>
<path d="M4.30769 12H3.53846C3.13044 12 2.73912 11.8379 2.4506 11.5494C2.16209 11.2609 2 10.8696 2 10.4615V3.53846C2 3.13044 2.16209 2.73912 2.4506 2.4506C2.73912 2.16209 3.13044 2 3.53846 2H10.4615C10.8696 2 11.2609 2.16209 11.5494 2.4506C11.8379 2.73912 12 3.13044 12 3.53846V4.30769" stroke="currentColor" stroke-opacity="0.6" stroke-width="1.25" stroke-linejoin="round"/>
</svg>
