<svg width="20" height="20" viewBox="0 0 20 20" fill="none" xmlns="http://www.w3.org/2000/svg">
<path fill-rule="evenodd" clip-rule="evenodd" d="M13.3333 2H16.001C17.1047 2 18 2.89536 18 3.99992V6.66675C18 7.77047 17.1047 8.66667 16.001 8.66667H13.3333C12.2287 8.66667 11.3334 7.77047 11.3334 6.66675V3.99992C11.3334 2.89536 12.2287 2 13.3333 2Z" stroke="currentColor" stroke-opacity="0.6" stroke-width="1.25" stroke-linejoin="round"/>
<path fill-rule="evenodd" clip-rule="evenodd" d="M3.99992 2H6.66675C7.77131 2 8.66667 2.89536 8.66667 3.99992V6.66675C8.66667 7.77047 7.77131 8.66667 6.66675 8.66667H3.99992C2.89536 8.66667 2 7.77047 2 6.66675V3.99992C2 2.89536 2.89536 2 3.99992 2Z" stroke="currentColor" stroke-opacity="0.6" stroke-width="1.25" stroke-linejoin="round"/>
<path fill-rule="evenodd" clip-rule="evenodd" d="M3.99992 11.3333H6.66675C7.77131 11.3333 8.66667 12.2287 8.66667 13.3341V16.0001C8.66667 17.1046 7.77131 18 6.66675 18H3.99992C2.89536 18 2 17.1046 2 16.0001V13.3341C2 12.2287 2.89536 11.3333 3.99992 11.3333Z" stroke="currentColor" stroke-opacity="0.6" stroke-width="1.25" stroke-linejoin="round"/>
<path fill-rule="evenodd" clip-rule="evenodd" d="M13.3333 11.3333H16.001C17.1047 11.3333 18 12.2287 18 13.3341V16.0001C18 17.1046 17.1047 18 16.001 18H13.3333C12.2287 18 11.3334 17.1046 11.3334 16.0001V13.3341C11.3334 12.2287 12.2287 11.3333 13.3333 11.3333Z" stroke="currentColor" stroke-opacity="0.6" stroke-width="1.25" stroke-linejoin="round"/>
</svg>
