<svg width="20" height="20" viewBox="0 0 20 20" fill="none" xmlns="http://www.w3.org/2000/svg">
<path d="M13 4L16 7M7.59452 8.6919L13.6889 2.57127C14.4482 1.80958 15.6788 1.80958 16.4381 2.57127L17.4306 3.56804C18.1898 4.33055 18.1898 5.56729 17.4306 6.32899L11.3068 12.4791C10.9749 12.8124 10.5247 13 10.055 13H7L7.07666 9.90406C7.08808 9.44868 7.2732 9.01459 7.59452 8.6919Z" stroke="currentColor" stroke-opacity="0.6" stroke-width="1.25" stroke-linejoin="round"/>
<path d="M10 3H5.5C4.11929 3 3 4.11929 3 5.5V14.5C3 15.8807 4.11929 17 5.5 17H14.5C15.8807 17 17 15.8807 17 14.5V10" stroke="currentColor" stroke-opacity="0.6" stroke-width="1.25" stroke-linejoin="round"/>
</svg>
