<svg width="20" height="20" viewBox="0 0 20 20" fill="none" xmlns="http://www.w3.org/2000/svg">
<path d="M9.99996 17.7083C14.2572 17.7083 17.7083 14.2572 17.7083 9.99996C17.7083 5.74276 14.2572 2.29163 9.99996 2.29163C5.74276 2.29163 2.29163 5.74276 2.29163 9.99996C2.29163 14.2572 5.74276 17.7083 9.99996 17.7083Z" stroke="currentColor" stroke-opacity="0.6" stroke-width="1.25" stroke-linejoin="round"/>
<path d="M13.5333 12.5667C13.3916 12.75 12.1416 14.2917 9.99995 14.2833C7.94162 14.2667 6.73328 12.825 6.57495 12.625" stroke="currentColor" stroke-opacity="0.6" stroke-width="1.25" stroke-linejoin="round"/>
<path d="M6.99995 7.28333C6.41661 7.28333 5.94995 7.75833 5.94995 8.33333C5.94995 8.90833 6.42495 9.38334 6.99995 9.38334C7.58328 9.38334 8.04995 8.90833 8.04995 8.33333C8.04995 7.75833 7.58328 7.28333 6.99995 7.28333Z" fill="currentColor" fill-opacity="0.6"/>
<path d="M13 7.28333C12.4166 7.28333 11.95 7.75833 11.95 8.33333C11.95 8.90833 12.425 9.38334 13 9.38334C13.5833 9.38334 14.05 8.90833 14.05 8.33333C14.05 7.75833 13.575 7.28333 13 7.28333Z" fill="currentColor" fill-opacity="0.6"/>
</svg>
