<svg width="20" height="20" viewBox="0 0 20 20" fill="none" xmlns="http://www.w3.org/2000/svg">
<path d="M13.5 3C14.0721 3.17056 14.5792 3.55796 14.9413 4.10114C15.3034 4.64432 15.5 5.31238 15.5 6C15.5 6.68762 15.3034 7.35567 14.9413 7.89886C14.5792 8.44204 14.0721 8.82944 13.5 9" stroke="currentColor" stroke-opacity="0.6" stroke-width="1.25"/>
<path d="M15.3333 17.5V15.8333C15.3333 14.9493 14.9821 14.1014 14.357 13.4763C13.7319 12.8512 12.8841 12.5 12 12.5H5.33333C4.44928 12.5 3.60143 12.8512 2.97631 13.4763C2.35119 14.1014 2 14.9493 2 15.8333V17.5" stroke="currentColor" stroke-opacity="0.6" stroke-width="1.25"/>
<path d="M17.8332 17.4998V15.8331C17.8332 14.949 17.6251 13.6251 17 13" stroke="currentColor" stroke-opacity="0.6" stroke-width="1.25"/>
<path d="M8.66683 9.16667C10.5078 9.16667 12.0002 7.67428 12.0002 5.83333C12.0002 3.99238 10.5078 2.5 8.66683 2.5C6.82588 2.5 5.3335 3.99238 5.3335 5.83333C5.3335 7.67428 6.82588 9.16667 8.66683 9.16667Z" stroke="currentColor" stroke-opacity="0.6" stroke-width="1.25"/>
</svg>
