<svg width="20" height="20" viewBox="0 0 20 20" fill="none" xmlns="http://www.w3.org/2000/svg">
<path fill-rule="evenodd" clip-rule="evenodd" d="M6.41265 11.159C5.87535 11.159 5.43884 10.7225 5.43884 10.1852C5.43884 9.64952 5.87535 9.21301 6.41265 9.21301C6.94995 9.21301 7.38646 9.64952 7.38646 10.1852C7.38646 10.7225 6.94995 11.159 6.41265 11.159ZM10.1984 11.159C9.66107 11.159 9.22456 10.7225 9.22456 10.1852C9.22456 9.64952 9.66107 9.21301 10.1984 9.21301C10.7357 9.21301 11.1722 9.64952 11.1722 10.1852C11.1722 10.7225 10.7357 11.159 10.1984 11.159ZM13.0104 10.1852C13.0104 10.7225 13.4469 11.159 13.9842 11.159C14.5215 11.159 14.958 10.7225 14.958 10.1852C14.958 9.64952 14.5215 9.21301 13.9842 9.21301C13.4469 9.21301 13.0104 9.64952 13.0104 10.1852Z" fill="currentColor" fill-opacity="0.6"/>
<path d="M4.68645 16.0732L3.26092 16.4966L3.73087 14.9231C3.86354 14.5342 3.8512 14.0843 3.62262 13.6991C2.98077 12.514 2.62488 11.2349 2.62488 10.0122C2.62488 6.12044 5.73445 2.62515 10.0159 2.62515C14.2001 2.62515 17.3749 6.05532 17.3749 9.98813C17.3749 14.5389 13.6722 17.3752 9.99988 17.3752C8.78948 17.3752 7.44703 17.047 6.38533 16.4226C5.99298 16.183 5.42012 15.8372 4.68645 16.0732Z" stroke="currentColor" stroke-opacity="0.6" stroke-width="1.25"/>
</svg>
