<svg width="20" height="20" viewBox="0 0 20 20" fill="none" xmlns="http://www.w3.org/2000/svg">
<path fill-rule="evenodd" clip-rule="evenodd" d="M3.78162 2.375C2.42857 2.375 1.375 3.50329 1.375 4.84983V7.78125V14.7096C1.375 16.2267 2.56696 17.4987 4.08433 17.4987H15.9157C17.433 17.4987 18.625 16.2267 18.625 14.7096V7.92987C18.625 6.41998 17.4314 5.14974 15.9157 5.14974H12.6032C12.2122 5.14974 11.8355 4.93505 11.6231 4.56549L11.623 4.56531L11.0609 3.5867L11.0608 3.58652C10.6333 2.8427 9.85102 2.375 8.99675 2.375H3.78162ZM2.625 4.84983C2.625 4.14897 3.16277 3.625 3.78162 3.625H8.99675C9.38783 3.625 9.76446 3.83969 9.97695 4.20925L9.97705 4.20943L10.5391 5.18804L10.5392 5.18821C10.6667 5.40997 10.8257 5.60718 11.0087 5.77478H2.625V4.84983Z" fill="currentColor" fill-opacity="0.6"/>
</svg>
