<svg width="20" height="20" viewBox="0 0 20 20" fill="none" xmlns="http://www.w3.org/2000/svg">
<path d="M7.60608 17.017V14.5636C7.60606 13.9396 8.14157 13.4326 8.80506 13.4284H11.2354C11.9021 13.4284 12.4425 13.9367 12.4425 14.5636V14.5636V17.0246C12.4424 17.5545 12.892 17.9875 13.4552 17.9999H15.0754C16.6906 17.9999 18 16.7685 18 15.2494V15.2494V8.27018C17.9914 7.67257 17.693 7.11139 17.1899 6.74633L11.6486 2.54815C10.6778 1.81716 9.29786 1.81716 8.32709 2.54815L2.81013 6.75395C2.30506 7.11753 2.00622 7.67964 2 8.2778V15.2494C2 16.7685 3.30937 17.9999 4.92456 17.9999H6.54481C7.12198 17.9999 7.58987 17.5599 7.58987 17.017V17.017" stroke="currentColor" stroke-opacity="0.6" stroke-width="1.25" stroke-linejoin="round"/>
</svg>
