<svg width="20" height="20" viewBox="0 0 20 20" fill="none" xmlns="http://www.w3.org/2000/svg">
<path fill-rule="evenodd" clip-rule="evenodd" d="M10.6249 2.00015V1.37515H9.37488V2.00015V2.4004C5.66217 2.7016 2.70133 5.66246 2.40012 9.37515H1.99988H1.37488V10.6252H1.99988H2.40012C2.70133 14.3378 5.66217 17.2987 9.37488 17.5999V18.0002V18.6252H10.6249V18.0002V17.5999C14.3376 17.2987 17.2984 14.3378 17.5996 10.6252H17.9999H18.6249V9.37515H17.9999H17.5996C17.2984 5.66246 14.3376 2.7016 10.6249 2.4004V2.00015ZM10.6249 16.0002V16.3449C13.6467 16.0509 16.0506 13.647 16.3446 10.6252H15.9999H15.3749V9.37515H15.9999H16.3446C16.0506 6.35331 13.6467 3.94944 10.6249 3.6554V4.00015V4.62515H9.37488V4.00015V3.6554C6.35302 3.94944 3.94917 6.35331 3.65513 9.37515H3.99988H4.62488V10.6252H3.99988H3.65513C3.94917 13.647 6.35302 16.0509 9.37488 16.3449V16.0002V15.3752H10.6249V16.0002ZM8.62488 10.0002C8.62488 9.24076 9.24049 8.62515 9.99988 8.62515C10.7593 8.62515 11.3749 9.24076 11.3749 10.0002C11.3749 10.7595 10.7593 11.3752 9.99988 11.3752C9.24049 11.3752 8.62488 10.7595 8.62488 10.0002ZM9.99988 7.37515C8.55013 7.37515 7.37488 8.5504 7.37488 10.0002C7.37488 11.4499 8.55013 12.6252 9.99988 12.6252C11.4496 12.6252 12.6249 11.4499 12.6249 10.0002C12.6249 8.5504 11.4496 7.37515 9.99988 7.37515Z" fill="currentColor" fill-opacity="0.6"/>
</svg>
