<svg width="20" height="20" viewBox="0 0 20 20" fill="none" xmlns="http://www.w3.org/2000/svg">
<path fill-rule="evenodd" clip-rule="evenodd" d="M10.625 1.5V2.90736C11.9922 3.04977 13.2218 3.65417 14.1492 4.56189C15.2183 5.59994 15.8793 7.04342 15.8793 8.64524V12.3158C16.8489 12.4099 17.625 13.2143 17.625 14.2158C17.625 15.2821 16.7452 16.125 15.6886 16.125H13.5717C13.2762 17.8359 11.7877 19.125 10 19.125C8.21208 19.125 6.72519 17.8285 6.42875 16.125H4.31144C3.25484 16.125 2.375 15.2821 2.375 14.2158C2.375 13.2143 3.15105 12.4099 4.12073 12.3158V8.64524C4.12073 5.66123 6.42944 3.21376 9.375 2.90733V1.5H10.625ZM6.375 14.875H7H13H13.625H15.6886C16.0796 14.875 16.375 14.5671 16.375 14.2158C16.375 13.8644 16.0796 13.5565 15.6886 13.5565H15.2543C14.9091 13.5565 14.6293 13.2767 14.6293 12.9315V8.64524C14.6293 7.39561 14.1155 6.27105 13.2776 5.45789L13.2756 5.45593C12.4348 4.63262 11.279 4.125 10 4.125C7.42953 4.125 5.37073 6.16675 5.37073 8.64524V12.9315C5.37073 13.2767 5.09091 13.5565 4.74573 13.5565H4.31144C3.92035 13.5565 3.625 13.8644 3.625 14.2158C3.625 14.5671 3.92036 14.875 4.31144 14.875H6.375ZM7.70826 16.125C7.98294 17.1329 8.90559 17.875 10 17.875C11.0966 17.875 12.0192 17.1374 12.2926 16.125H7.70826Z" fill="currentColor" fill-opacity="0.6"/>
</svg>
