<svg width="20" height="20" viewBox="0 0 20 20" fill="none" xmlns="http://www.w3.org/2000/svg">
<path fill-rule="evenodd" clip-rule="evenodd" d="M4.37495 5.25L3.37495 6L2.62495 5L4.62495 3.5L5.62495 4V9H4.37495V5.25ZM4.9181 11.6767C4.67398 11.6038 4.40694 11.608 4.16531 11.6893C3.90964 11.7754 3.71397 11.9365 3.60095 12.1258L2.52771 11.485C2.80482 11.0209 3.24998 10.6785 3.76651 10.5046C4.28262 10.3309 4.84891 10.3318 5.36441 10.5073L5.44712 10.5422C5.84052 10.743 6.16727 11.0542 6.37182 11.4433C6.57637 11.8324 6.64509 12.2746 6.56306 12.7065C6.48388 13.147 6.25189 13.4397 5.96675 13.7065C5.83073 13.8339 5.66766 13.9689 5.49154 14.1142L5.45198 14.1468L5.45196 14.1469C5.28105 14.2878 5.0876 14.4473 4.86363 14.6409L4.85846 14.6454L4.85843 14.6454C4.76633 14.7232 4.67718 14.7999 4.59115 14.875H6.49995V16.125H2.99995L2.56376 15.0524C2.87492 14.7492 3.38886 14.2512 4.04873 13.693C4.28297 13.4906 4.48578 13.3234 4.65562 13.1833L4.65572 13.1833L4.65579 13.1832L4.69613 13.1499C4.87892 12.9992 5.01038 12.8896 5.11256 12.7939C5.3028 12.6159 5.32124 12.5506 5.333 12.4841L5.33464 12.4749L5.3347 12.4749C5.36348 12.3253 5.34127 12.1693 5.26538 12.025C5.19448 11.8901 5.07686 11.7666 4.9181 11.6767ZM7.99995 10.625H17V9.375H7.99995V10.625ZM17 14.625H7.99995V13.375H17V14.625ZM7.99995 6.625H17V5.375H7.99995V6.625Z" fill="currentColor" fill-opacity="0.6"/>
</svg>
