<svg width="20" height="20" viewBox="0 0 20 20" fill="none" xmlns="http://www.w3.org/2000/svg">
<path d="M6.26738 10.9978C5.71654 10.9978 5.26904 10.5503 5.26904 10.0003C5.26904 9.45035 5.71654 9.00201 6.26738 9.00201C6.81821 9.00201 7.26571 9.45035 7.26571 10.0003C7.26571 10.5503 6.81821 10.9978 6.26738 10.9978Z" fill="currentColor" fill-opacity="0.6"/>
<path d="M10.0002 10.9978C9.44933 10.9978 9.00183 10.5503 9.00183 10.0003C9.00183 9.45035 9.44933 9.00201 10.0002 9.00201C10.551 9.00201 10.9985 9.45035 10.9985 10.0003C10.9985 10.5503 10.551 10.9978 10.0002 10.9978Z" fill="currentColor" fill-opacity="0.6"/>
<path d="M2.625 5.80334C2.625 4.04803 4.04796 2.62506 5.80328 2.62506H14.1967C15.952 2.62506 17.375 4.04802 17.375 5.80334V14.1968C17.375 15.9521 15.952 17.3751 14.1967 17.3751H5.80328C4.04796 17.3751 2.625 15.9521 2.625 14.1968V5.80334Z" stroke="currentColor" stroke-opacity="0.6" stroke-width="1.25"/>
<path d="M13.7327 10.9978C13.1819 10.9978 12.7344 10.5503 12.7344 10.0003C12.7344 9.45035 13.1819 9.00201 13.7327 9.00201C14.2835 9.00201 14.731 9.45035 14.731 10.0003C14.731 10.5503 14.2835 10.9978 13.7327 10.9978Z" fill="currentColor" fill-opacity="0.6"/>
</svg>
