<svg width="20" height="20" viewBox="0 0 20 20" fill="none" xmlns="http://www.w3.org/2000/svg">
<path fill-rule="evenodd" clip-rule="evenodd" d="M14.4911 5.62499H6.66664C6.12516 5.62499 5.60585 5.84009 5.22296 6.22298C4.84008 6.60586 4.62497 7.12517 4.62497 7.66665V8.99999H3.37497V7.66665C3.37497 6.79365 3.72177 5.9564 4.33908 5.33909C4.95639 4.72179 5.79363 4.37499 6.66664 4.37499H14.4911L12.558 2.44193L13.4419 1.55804L16.4419 4.55804L16.8839 4.99999L16.4419 5.44193L13.4419 8.44193L12.558 7.55804L14.4911 5.62499ZM5.50886 14.375L7.44191 12.4419L6.55803 11.558L3.55803 14.558L3.11609 15L3.55803 15.4419L6.55803 18.4419L7.44191 17.558L5.50886 15.625H13.3333C14.2063 15.625 15.0436 15.2782 15.6609 14.6609C16.2782 14.0436 16.625 13.2063 16.625 12.3333V11H15.375V12.3333C15.375 12.8748 15.1599 13.3941 14.777 13.777C14.3941 14.1599 13.8748 14.375 13.3333 14.375H5.50886Z" fill="currentColor" fill-opacity="0.6"/>
</svg>
