<svg width="20" height="20" viewBox="0 0 20 20" fill="none" xmlns="http://www.w3.org/2000/svg">
<path fill-rule="evenodd" clip-rule="evenodd" d="M3.375 1.875H4H7.43825H12.5871H16V3.125H14.676C14.8389 3.43694 14.9311 3.79158 14.9311 4.17027V5.14324C14.9311 5.15118 14.931 5.15911 14.9307 5.16705C14.9081 5.75882 14.6612 6.34263 14.2243 6.76718L11.654 9.26447C10.7424 10.1502 9.27365 10.1464 8.35739 9.26716L8.35459 9.26447L8.3546 9.26447L5.78436 6.76718L6.2199 6.31892L5.78436 6.76718C5.33807 6.33355 5.0942 5.75034 5.0942 5.14324V4.17027C5.0942 3.79158 5.18647 3.43694 5.34932 3.125H4H3.375V1.875ZM7.43825 3.125C6.81502 3.125 6.3442 3.60796 6.3442 4.17027V5.14324C6.3442 5.41181 6.45082 5.67186 6.65543 5.87067L7.81776 7H12.1909L13.3532 5.87067C13.548 5.68138 13.6678 5.41017 13.6811 5.13001V4.17027C13.6811 3.60796 13.2103 3.125 12.5871 3.125H7.43825ZM10.0001 13.75C9.83316 13.75 9.67461 13.6831 9.55778 13.5659C9.44095 13.4488 9.37419 13.2899 9.37419 13.1225C9.37419 13.0389 9.39088 12.9636 9.42426 12.8799C9.45764 12.8046 9.49937 12.7377 9.55778 12.6791C9.72468 12.5034 10.0084 12.4532 10.2421 12.5452C10.3172 12.5787 10.3839 12.6205 10.4423 12.6791C10.5008 12.7377 10.5425 12.8046 10.5759 12.8799C10.6092 12.9636 10.6259 13.0389 10.6259 13.1225C10.6259 13.2899 10.5592 13.4488 10.4423 13.5659C10.3255 13.6831 10.167 13.75 10.0001 13.75ZM9.22551 11.624C9.65056 11.211 10.3494 11.211 10.7745 11.624L11.2084 11.1773L10.7745 11.624L13.353 14.1294C13.4276 14.2018 13.4901 14.2851 13.5391 14.375H6.46083C6.50983 14.2851 6.57238 14.2018 6.64693 14.1294L9.22551 11.624ZM14.9142 15.8298V15.8297L14.9143 14.8568V14.8568C14.9143 14.2473 14.6604 13.6567 14.2241 13.2328L11.6455 10.7274C10.7354 9.84313 9.26457 9.84313 8.35443 10.7274L5.77586 13.2328C5.3396 13.6567 5.0857 14.2473 5.08569 14.8568V14.8568L5.08569 14.9935L5.08566 15V15.8297V15.8297C5.08566 16.2084 5.17792 16.5631 5.34078 16.875H4H3.375V18.125H4H16C16.3452 18.125 16.625 17.8452 16.625 17.5C16.625 17.1548 16.3452 16.875 16 16.875H14.6591C14.822 16.5631 14.9142 16.2084 14.9142 15.8298Z" fill="currentColor" fill-opacity="0.6"/>
</svg>
