<svg width="20" height="20" viewBox="0 0 20 20" fill="none" xmlns="http://www.w3.org/2000/svg">
<path fill-rule="evenodd" clip-rule="evenodd" d="M10 18C14.4183 18 18 14.4183 18 10C18 5.58172 14.4183 2 10 2C5.58172 2 2 5.58172 2 10C2 14.4183 5.58172 18 10 18ZM7.39956 6.51612L7.84167 6.95789L10.0021 9.11669L12.1608 6.96016L12.6029 6.51844L13.4864 7.40275L13.0442 7.84448L10.8864 10.0002L13.0457 12.1579L13.4878 12.5997L12.6042 13.4839L12.1621 13.0421L10.002 10.8837L7.84456 13.0391L7.4024 13.4808L6.51895 12.5965L6.96111 12.1547L9.11782 10.0001L6.95813 7.84211L6.51602 7.40034L7.39956 6.51612Z" fill="currentColor" fill-opacity="0.6"/>
</svg>
