<svg width="20" height="20" viewBox="0 0 20 20" fill="none" xmlns="http://www.w3.org/2000/svg">
<path fill-rule="evenodd" clip-rule="evenodd" d="M10.6376 2.39185L12.7095 6.53318C12.8133 6.74207 13.0137 6.88785 13.2463 6.92163L17.8849 7.58741C18.0727 7.6123 18.2418 7.71007 18.3572 7.85941C18.5737 8.13941 18.5406 8.53585 18.2812 8.77674L14.9192 12.007C14.7484 12.167 14.6723 12.4016 14.717 12.6301L15.5222 17.1883C15.5786 17.5661 15.3191 17.9199 14.9389 17.9812C14.7815 18.0052 14.6204 17.9803 14.4773 17.9101L10.346 15.7581C10.1384 15.6461 9.88974 15.6461 9.6822 15.7581L5.52048 17.9216C5.17248 18.0976 4.74665 17.967 4.55699 17.6283C4.48453 17.4914 4.45948 17.3359 4.48453 17.1839L5.28967 12.6256C5.32993 12.3981 5.25389 12.1643 5.08749 12.0034L1.70766 8.77407C1.43213 8.50207 1.43034 8.05941 1.70498 7.78563C1.70587 7.78474 1.70677 7.78296 1.70766 7.78207C1.82128 7.67985 1.96084 7.61141 2.11203 7.58474L6.75146 6.91896C6.98316 6.88252 7.18266 6.73852 7.28823 6.52963L9.35835 2.39185C9.44155 2.22385 9.58916 2.09496 9.76808 2.03629C9.94789 1.97674 10.1447 1.99096 10.3138 2.0754C10.4525 2.14385 10.5661 2.25496 10.6376 2.39185Z" fill="currentColor" fill-opacity="0.6"/>
</svg>
