<svg width="20" height="20" viewBox="0 0 20 20" fill="none" xmlns="http://www.w3.org/2000/svg">
<path fill-rule="evenodd" clip-rule="evenodd" d="M8.33333 4.375C7.53428 4.375 6.77745 4.71549 6.22651 5.30578C5.67693 5.89462 5.375 6.68458 5.375 7.5C5.375 8.31542 5.67693 9.10538 6.22651 9.69422C6.2441 9.71307 6.26191 9.73166 6.27991 9.75H4V11L12.691 11C12.7498 11.0484 12.8062 11.1014 12.8597 11.1587C13.1853 11.5075 13.375 11.9893 13.375 12.5C13.375 13.0107 13.1853 13.4925 12.8597 13.8413C12.5354 14.1887 12.1053 14.375 11.6667 14.375H6V15.625H11.6667C12.4657 15.625 13.2226 15.2845 13.7735 14.6942C14.3231 14.1054 14.625 13.3154 14.625 12.5C14.625 11.9736 14.4992 11.4579 14.2622 11H16V9.75H13.0722C12.6465 9.50732 12.1648 9.375 11.6667 9.375H8.33333C7.89471 9.375 7.46456 9.18871 7.14033 8.84132C6.81474 8.49247 6.625 8.01066 6.625 7.5C6.625 6.98934 6.81474 6.50753 7.14033 6.15868C7.46456 5.81129 7.89471 5.625 8.33333 5.625H13.3333V4.375H8.33333Z" fill="currentColor" fill-opacity="0.6"/>
</svg>
