<svg width="20" height="20" viewBox="0 0 20 20" fill="none" xmlns="http://www.w3.org/2000/svg">
<path fill-rule="evenodd" clip-rule="evenodd" d="M2.625 4C2.625 3.24061 3.24061 2.625 4 2.625C4.75939 2.625 5.375 3.24061 5.375 4C5.375 4.75939 4.75939 5.375 4 5.375C3.24061 5.375 2.625 4.75939 2.625 4ZM4 1.375C2.55025 1.375 1.375 2.55025 1.375 4C1.375 5.44975 2.55025 6.625 4 6.625C4.49833 6.625 4.96423 6.48614 5.36111 6.245L5.93927 6.82315C5.58306 7.34912 5.375 7.98359 5.375 8.66667V11.3333C5.375 12.0164 5.58306 12.6509 5.93927 13.1768L5.36111 13.755C4.96423 13.5139 4.49833 13.375 4 13.375C2.55025 13.375 1.375 14.5503 1.375 16C1.375 17.4497 2.55025 18.625 4 18.625C5.44975 18.625 6.625 17.4497 6.625 16C6.625 15.5017 6.48614 15.0358 6.245 14.6389L6.82315 14.0607C7.34912 14.4169 7.98359 14.625 8.66667 14.625H11.3333C12.0164 14.625 12.6509 14.4169 13.1768 14.0607L13.755 14.6389C13.5139 15.0358 13.375 15.5017 13.375 16C13.375 17.4497 14.5503 18.625 16 18.625C17.4497 18.625 18.625 17.4497 18.625 16C18.625 14.5503 17.4497 13.375 16 13.375C15.5017 13.375 15.0358 13.5139 14.6389 13.755L14.0607 13.1768C14.4169 12.6509 14.625 12.0164 14.625 11.3333V8.66667C14.625 7.98359 14.4169 7.34912 14.0607 6.82315L14.6389 6.245C15.0358 6.48614 15.5017 6.625 16 6.625C17.4497 6.625 18.625 5.44975 18.625 4C18.625 2.55025 17.4497 1.375 16 1.375C14.5503 1.375 13.375 2.55025 13.375 4C13.375 4.49833 13.5139 4.96423 13.755 5.36111L13.1768 5.93927C12.6509 5.58306 12.0164 5.375 11.3333 5.375H8.66667C7.98359 5.375 7.34912 5.58306 6.82315 5.93927L6.245 5.36111C6.48614 4.96423 6.625 4.49833 6.625 4C6.625 2.55025 5.44975 1.375 4 1.375ZM14.625 4C14.625 3.24061 15.2406 2.625 16 2.625C16.7594 2.625 17.375 3.24061 17.375 4C17.375 4.75939 16.7594 5.375 16 5.375C15.2406 5.375 14.625 4.75939 14.625 4ZM4 14.625C3.24061 14.625 2.625 15.2406 2.625 16C2.625 16.7594 3.24061 17.375 4 17.375C4.75939 17.375 5.375 16.7594 5.375 16C5.375 15.2406 4.75939 14.625 4 14.625ZM14.625 16C14.625 15.2406 15.2406 14.625 16 14.625C16.7594 14.625 17.375 15.2406 17.375 16C17.375 16.7594 16.7594 17.375 16 17.375C15.2406 17.375 14.625 16.7594 14.625 16ZM8.66667 6.625C7.53909 6.625 6.625 7.53909 6.625 8.66667V11.3333C6.625 12.4609 7.53909 13.375 8.66667 13.375H11.3333C12.4609 13.375 13.375 12.4609 13.375 11.3333V8.66667C13.375 7.53909 12.4609 6.625 11.3333 6.625H8.66667ZM8 10.625H12V9.375H8V10.625Z" fill="currentColor" fill-opacity="0.6"/>
</svg>
